<svg width="64" height="64" viewBox="0 0 64 64" fill="none" xmlns="http://www.w3.org/2000/svg">
<path fill-rule="evenodd" clip-rule="evenodd" d="M16 32C16 31.4696 16.2107 30.9609 16.5858 30.5858C16.9609 30.2107 17.4696 30 18 30H41.172L32.584 21.416C32.2085 21.0405 31.9975 20.5311 31.9975 20C31.9975 19.4689 32.2085 18.9596 32.584 18.584C32.9595 18.2085 33.4689 17.9975 34 17.9975C34.5311 17.9975 35.0405 18.2085 35.416 18.584L47.416 30.584C47.6023 30.7698 47.75 30.9905 47.8508 31.2335C47.9517 31.4765 48.0036 31.737 48.0036 32C48.0036 32.2631 47.9517 32.5236 47.8508 32.7666C47.75 33.0095 47.6023 33.2302 47.416 33.416L35.416 45.416C35.0405 45.7916 34.5311 46.0026 34 46.0026C33.4689 46.0026 32.9595 45.7916 32.584 45.416C32.2085 45.0405 31.9975 44.5311 31.9975 44C31.9975 43.4689 32.2085 42.9596 32.584 42.584L41.172 34H18C17.4696 34 16.9609 33.7893 16.5858 33.4142C16.2107 33.0392 16 32.5305 16 32Z" fill="black"/>
</svg>
